<svg width="252" height="252" viewBox="0 0 252 252" fill="none" xmlns="http://www.w3.org/2000/svg">
<rect x="0.5" y="0.5" width="251" height="251" rx="10.5" fill="white" stroke="#E6E6E6"/>
<circle cx="30.0909" cy="30.0907" r="14.5455" fill="#213547"/>
<path fillRule="evenodd" clipRule="evenodd" d="M40.1322 50.8901C45.3961 48.3442 49.5469 43.8587 51.6564 38.3618C53.2138 39.3106 55.0431 39.8571 57.0001 39.8571C57.1698 39.8571 57.3386 39.853 57.5063 39.8449C54.8587 47.2859 49.2677 53.3312 42.1343 56.5796C42.0488 54.4534 41.3179 52.4934 40.1322 50.8901ZM22.8526 52.0246C13.6454 48.9878 7 40.3154 7 30.0909C7 26.9617 7.62244 23.9779 8.75025 21.2566C6.71762 20.7413 4.92627 19.6208 3.57923 18.0981C1.92246 21.7548 1 25.8151 1 30.0909C1 43.2082 9.68168 54.2977 21.6125 57.927C21.5852 57.6216 21.5713 57.3124 21.5713 57C21.5713 55.1952 22.0361 53.499 22.8526 52.0246ZM30.0909 1C42.3394 1 52.8199 8.56977 57.1093 19.2863C57.0729 19.2859 57.0365 19.2857 57.0001 19.2857C54.9008 19.2857 52.9484 19.9146 51.321 20.9943C47.79 12.7645 39.6137 7 30.0909 7C26.9617 7 23.9779 7.62244 21.2566 8.75025C20.7413 6.71762 19.6208 4.92627 18.0981 3.57923C21.7548 1.92246 25.8151 1 30.0909 1Z" fill="#213547"/>
<circle cx="11.2856" cy="11.2857" r="8" fill="#213547"/>
<circle cx="31.8569" cy="57" r="8" fill="#213547"/>
<circle cx="57" cy="29.5714" r="8" fill="#213547"/>
</svg>
