<svg width="252" height="252" viewBox="0 0 252 252" fill="none" xmlns="http://www.w3.org/2000/svg">
<rect x="0.5" y="0.5" width="251" height="251" rx="10.5" fill="white" stroke="#E6E6E6"/>
<circle cx="120.182" cy="120.181" r="29.0909" fill="#213547"/>
<path fillRule="evenodd" clipRule="evenodd" d="M140.264 161.78C150.792 156.688 159.094 147.717 163.313 136.724C166.428 138.621 170.086 139.714 174 139.714C174.34 139.714 174.677 139.706 175.013 139.69C169.717 154.572 158.535 166.662 144.269 173.159C144.098 168.907 142.636 164.987 140.264 161.78ZM105.705 164.049C87.2907 157.976 74 140.631 74 120.182C74 113.923 75.2449 107.956 77.5005 102.513C73.4352 101.483 69.8525 99.2416 67.1585 96.1962C63.8449 103.51 62 111.63 62 120.182C62 146.416 79.3633 168.595 103.225 175.854C103.17 175.243 103.143 174.625 103.143 174C103.143 170.391 104.072 166.998 105.705 164.049ZM120.182 62C144.679 62 165.64 77.1395 174.218 98.5724C174.146 98.5717 174.073 98.5713 174 98.5713C169.802 98.5713 165.897 99.8291 162.642 101.989C155.58 85.5289 139.227 74 120.182 74C113.923 74 107.956 75.2449 102.513 77.5005C101.483 73.4352 99.2416 69.8525 96.1962 67.1585C103.51 63.8449 111.63 62 120.182 62Z" fill="#213547"/>
<circle cx="82.5713" cy="82.5713" r="16" fill="#213547"/>
<circle cx="123.714" cy="174" r="16" fill="#213547"/>
<circle cx="174" cy="119.143" r="16" fill="#213547"/>
</svg>
