<svg width="700" height="350" viewBox="0 0 700 350" fill="none" xmlns="http://www.w3.org/2000/svg">
<rect x="0.5" y="0.5" width="699" height="349" rx="9.5" fill="white"/>
<circle cx="345.454" cy="170.454" r="22.7273" fill="#213547"/>
<path fill-rule="evenodd" clip-rule="evenodd" d="M361.144 202.953C369.369 198.975 375.854 191.967 379.151 183.378C381.584 184.86 384.442 185.714 387.5 185.714C387.765 185.714 388.029 185.708 388.291 185.695C384.154 197.322 375.418 206.767 364.273 211.843C364.139 208.521 362.997 205.458 361.144 202.953ZM334.145 204.726C319.759 199.981 309.375 186.43 309.375 170.455C309.375 165.565 310.348 160.903 312.11 156.651C308.934 155.846 306.135 154.095 304.03 151.716C301.441 157.429 300 163.774 300 170.455C300 190.95 313.565 208.278 332.207 213.949C332.165 213.471 332.143 212.988 332.143 212.5C332.143 209.68 332.869 207.03 334.145 204.726ZM345.455 125C364.593 125 380.969 136.828 387.671 153.572C387.614 153.572 387.557 153.571 387.5 153.571C384.22 153.571 381.169 154.554 378.627 156.241C373.109 143.382 360.334 134.375 345.455 134.375C340.565 134.375 335.903 135.348 331.651 137.11C330.846 133.934 329.095 131.135 326.716 129.03C332.429 126.441 338.774 125 345.455 125Z" fill="#213547"/>
<circle cx="316.071" cy="141.071" r="12.5" fill="#213547"/>
<circle cx="348.214" cy="212.5" r="12.5" fill="#213547"/>
<circle cx="387.5" cy="169.643" r="12.5" fill="#213547"/>
<rect x="0.5" y="0.5" width="699" height="349" rx="9.5" stroke="#E6E6E6"/>
</svg>
