<svg width="700" height="350" viewBox="0 0 700 350" fill="none" xmlns="http://www.w3.org/2000/svg">
<rect x="0.5" y="0.5" width="699" height="349" rx="9.5" fill="white"/>
<path d="M290.369 166.152V183H286.265V176.064H279.881V183H275.777V166.152H279.881V172.752H286.265V166.152H290.369ZM305.956 176.088C305.956 176.472 305.932 176.872 305.884 177.288H296.596C296.66 178.12 296.924 178.76 297.388 179.208C297.868 179.64 298.452 179.856 299.14 179.856C300.164 179.856 300.876 179.424 301.276 178.56H305.644C305.42 179.44 305.012 180.232 304.42 180.936C303.844 181.64 303.116 182.192 302.236 182.592C301.356 182.992 300.372 183.192 299.284 183.192C297.972 183.192 296.804 182.912 295.78 182.352C294.756 181.792 293.956 180.992 293.38 179.952C292.804 178.912 292.516 177.696 292.516 176.304C292.516 174.912 292.796 173.696 293.356 172.656C293.932 171.616 294.732 170.816 295.756 170.256C296.78 169.696 297.956 169.416 299.284 169.416C300.58 169.416 301.732 169.688 302.74 170.232C303.748 170.776 304.532 171.552 305.092 172.56C305.668 173.568 305.956 174.744 305.956 176.088ZM301.756 175.008C301.756 174.304 301.516 173.744 301.036 173.328C300.556 172.912 299.956 172.704 299.236 172.704C298.548 172.704 297.964 172.904 297.484 173.304C297.02 173.704 296.732 174.272 296.62 175.008H301.756ZM312.225 165.24V183H308.121V165.24H312.225ZM319.303 165.24V183H315.199V165.24H319.303ZM328.373 183.192C327.061 183.192 325.877 182.912 324.821 182.352C323.781 181.792 322.957 180.992 322.349 179.952C321.757 178.912 321.461 177.696 321.461 176.304C321.461 174.928 321.765 173.72 322.373 172.68C322.981 171.624 323.813 170.816 324.869 170.256C325.925 169.696 327.109 169.416 328.421 169.416C329.733 169.416 330.917 169.696 331.973 170.256C333.029 170.816 333.861 171.624 334.469 172.68C335.077 173.72 335.381 174.928 335.381 176.304C335.381 177.68 335.069 178.896 334.445 179.952C333.837 180.992 332.997 181.792 331.925 182.352C330.869 182.912 329.685 183.192 328.373 183.192ZM328.373 179.64C329.157 179.64 329.821 179.352 330.365 178.776C330.925 178.2 331.205 177.376 331.205 176.304C331.205 175.232 330.933 174.408 330.389 173.832C329.861 173.256 329.205 172.968 328.421 172.968C327.621 172.968 326.957 173.256 326.429 173.832C325.901 174.392 325.637 175.216 325.637 176.304C325.637 177.376 325.893 178.2 326.405 178.776C326.933 179.352 327.589 179.64 328.373 179.64ZM365.828 166.152L361.436 183H356.468L353.78 171.912L350.996 183H346.028L341.756 166.152H346.148L348.572 178.416L351.572 166.152H356.084L358.964 178.416L361.412 166.152H365.828ZM373.982 183.192C372.67 183.192 371.486 182.912 370.43 182.352C369.39 181.792 368.566 180.992 367.958 179.952C367.366 178.912 367.07 177.696 367.07 176.304C367.07 174.928 367.374 173.72 367.982 172.68C368.59 171.624 369.422 170.816 370.478 170.256C371.534 169.696 372.718 169.416 374.03 169.416C375.342 169.416 376.526 169.696 377.582 170.256C378.638 170.816 379.47 171.624 380.078 172.68C380.686 173.72 380.99 174.928 380.99 176.304C380.99 177.68 380.678 178.896 380.054 179.952C379.446 180.992 378.606 181.792 377.534 182.352C376.478 182.912 375.294 183.192 373.982 183.192ZM373.982 179.64C374.766 179.64 375.43 179.352 375.974 178.776C376.534 178.2 376.814 177.376 376.814 176.304C376.814 175.232 376.542 174.408 375.998 173.832C375.47 173.256 374.814 172.968 374.03 172.968C373.23 172.968 372.566 173.256 372.038 173.832C371.51 174.392 371.246 175.216 371.246 176.304C371.246 177.376 371.502 178.2 372.014 178.776C372.542 179.352 373.198 179.64 373.982 179.64ZM387.272 171.84C387.752 171.104 388.352 170.528 389.072 170.112C389.792 169.68 390.592 169.464 391.472 169.464V173.808H390.344C389.32 173.808 388.552 174.032 388.04 174.48C387.528 174.912 387.272 175.68 387.272 176.784V183H383.168V169.608H387.272V171.84ZM397.537 165.24V183H393.433V165.24H397.537ZM399.695 176.28C399.695 174.904 399.951 173.696 400.463 172.656C400.991 171.616 401.703 170.816 402.599 170.256C403.495 169.696 404.495 169.416 405.599 169.416C406.479 169.416 407.279 169.6 407.999 169.968C408.735 170.336 409.311 170.832 409.727 171.456V165.24H413.831V183H409.727V181.08C409.343 181.72 408.791 182.232 408.071 182.616C407.367 183 406.543 183.192 405.599 183.192C404.495 183.192 403.495 182.912 402.599 182.352C401.703 181.776 400.991 180.968 400.463 179.928C399.951 178.872 399.695 177.656 399.695 176.28ZM409.727 176.304C409.727 175.28 409.439 174.472 408.863 173.88C408.303 173.288 407.615 172.992 406.799 172.992C405.983 172.992 405.287 173.288 404.711 173.88C404.151 174.456 403.871 175.256 403.871 176.28C403.871 177.304 404.151 178.12 404.711 178.728C405.287 179.32 405.983 179.616 406.799 179.616C407.615 179.616 408.303 179.32 408.863 178.728C409.439 178.136 409.727 177.328 409.727 176.304ZM422.201 165.552L421.721 177.048H418.241L417.761 165.552H422.201ZM420.041 183.192C419.321 183.192 418.729 182.984 418.265 182.568C417.817 182.136 417.593 181.608 417.593 180.984C417.593 180.344 417.817 179.808 418.265 179.376C418.729 178.944 419.321 178.728 420.041 178.728C420.745 178.728 421.321 178.944 421.769 179.376C422.233 179.808 422.465 180.344 422.465 180.984C422.465 181.608 422.233 182.136 421.769 182.568C421.321 182.984 420.745 183.192 420.041 183.192Z" fill="#14213D"/>
<rect x="0.5" y="0.5" width="699" height="349" rx="9.5" stroke="#E6E6E6"/>
</svg>
