<svg width="700" height="350" viewBox="0 0 700 350" fill="none" xmlns="http://www.w3.org/2000/svg">
<rect x="0.5" y="0.5" width="699" height="349" rx="9.5" fill="white"/>
<path d="M272.832 176.117H267.699V179.598H268.074C268.652 179.598 269.062 179.711 269.305 179.938C269.555 180.156 269.68 180.445 269.68 180.805C269.68 181.156 269.555 181.445 269.305 181.672C269.062 181.891 268.652 182 268.074 182H265.133C264.555 182 264.141 181.891 263.891 181.672C263.648 181.445 263.527 181.152 263.527 180.793C263.527 180.355 263.719 180.016 264.102 179.773C264.289 179.648 264.688 179.59 265.297 179.598V170.199C264.875 170.16 264.555 170.031 264.336 169.812C264.125 169.594 264.02 169.32 264.02 168.992C264.02 168.633 264.141 168.344 264.383 168.125C264.633 167.898 265.047 167.785 265.625 167.785L268.074 167.797C268.652 167.797 269.062 167.906 269.305 168.125C269.555 168.344 269.68 168.633 269.68 168.992C269.68 169.352 269.555 169.645 269.305 169.871C269.062 170.09 268.652 170.199 268.074 170.199H267.699V173.715H272.832V170.199H272.457C271.879 170.199 271.465 170.09 271.215 169.871C270.973 169.645 270.852 169.352 270.852 168.992C270.852 168.633 270.973 168.344 271.215 168.125C271.465 167.898 271.879 167.785 272.457 167.785L274.906 167.797C275.484 167.797 275.895 167.906 276.137 168.125C276.387 168.344 276.512 168.633 276.512 168.992C276.512 169.32 276.402 169.594 276.184 169.812C275.973 170.031 275.656 170.16 275.234 170.199V179.598C275.852 179.598 276.25 179.656 276.43 179.773C276.812 180.016 277.004 180.359 277.004 180.805C277.004 181.156 276.879 181.445 276.629 181.672C276.387 181.891 275.977 182 275.398 182H272.457C271.879 182 271.465 181.891 271.215 181.672C270.973 181.445 270.852 181.152 270.852 180.793C270.852 180.441 270.977 180.156 271.227 179.938C271.477 179.711 271.887 179.598 272.457 179.598H272.832V176.117ZM290.645 177.898H280.789C281.039 178.523 281.48 179.027 282.113 179.41C282.754 179.793 283.617 179.984 284.703 179.984C285.594 179.984 286.777 179.793 288.254 179.41C288.863 179.254 289.285 179.176 289.52 179.176C289.84 179.176 290.109 179.289 290.328 179.516C290.547 179.742 290.656 180.027 290.656 180.371C290.656 180.684 290.539 180.949 290.305 181.168C289.992 181.457 289.23 181.734 288.02 182C286.809 182.258 285.645 182.387 284.527 182.387C282.605 182.387 281.066 181.844 279.91 180.758C278.762 179.672 278.188 178.336 278.188 176.75C278.188 175.062 278.809 173.691 280.051 172.637C281.301 171.574 282.738 171.043 284.363 171.043C285.34 171.043 286.234 171.215 287.047 171.559C287.867 171.902 288.477 172.273 288.875 172.672C289.438 173.25 289.902 173.965 290.27 174.816C290.52 175.41 290.645 176.098 290.645 176.879V177.898ZM287.984 175.496C287.617 174.809 287.137 174.297 286.543 173.961C285.949 173.617 285.242 173.445 284.422 173.445C283.609 173.445 282.906 173.617 282.312 173.961C281.719 174.297 281.234 174.809 280.859 175.496H287.984ZM300.23 166.801V179.598H303.113C303.691 179.598 304.102 179.711 304.344 179.938C304.594 180.156 304.719 180.445 304.719 180.805C304.719 181.156 304.594 181.445 304.344 181.672C304.102 181.891 303.691 182 303.113 182H294.945C294.367 182 293.953 181.891 293.703 181.672C293.461 181.445 293.34 181.152 293.34 180.793C293.34 180.441 293.461 180.156 293.703 179.938C293.953 179.711 294.367 179.598 294.945 179.598H297.828V169.203H295.895C295.324 169.203 294.914 169.094 294.664 168.875C294.414 168.648 294.289 168.355 294.289 167.996C294.289 167.645 294.41 167.359 294.652 167.141C294.902 166.914 295.316 166.801 295.895 166.801H300.23ZM314.645 166.801V179.598H317.527C318.105 179.598 318.516 179.711 318.758 179.938C319.008 180.156 319.133 180.445 319.133 180.805C319.133 181.156 319.008 181.445 318.758 181.672C318.516 181.891 318.105 182 317.527 182H309.359C308.781 182 308.367 181.891 308.117 181.672C307.875 181.445 307.754 181.152 307.754 180.793C307.754 180.441 307.875 180.156 308.117 179.938C308.367 179.711 308.781 179.598 309.359 179.598H312.242V169.203H310.309C309.738 169.203 309.328 169.094 309.078 168.875C308.828 168.648 308.703 168.355 308.703 167.996C308.703 167.645 308.824 167.359 309.066 167.141C309.316 166.914 309.73 166.801 310.309 166.801H314.645ZM334.098 176.879C334.098 177.801 333.84 178.695 333.324 179.562C332.816 180.422 332.055 181.109 331.039 181.625C330.031 182.133 328.977 182.387 327.875 182.387C326.781 182.387 325.734 182.137 324.734 181.637C323.734 181.129 322.973 180.441 322.449 179.574C321.926 178.707 321.664 177.801 321.664 176.855C321.664 175.895 321.93 174.953 322.461 174.031C322.992 173.102 323.754 172.371 324.746 171.84C325.746 171.309 326.789 171.043 327.875 171.043C328.969 171.043 330.02 171.316 331.027 171.863C332.043 172.402 332.809 173.133 333.324 174.055C333.84 174.969 334.098 175.91 334.098 176.879ZM331.695 176.891C331.695 176.117 331.418 175.406 330.863 174.758C330.105 173.883 329.109 173.445 327.875 173.445C326.789 173.445 325.883 173.793 325.156 174.488C324.43 175.184 324.066 175.988 324.066 176.902C324.066 177.652 324.434 178.355 325.168 179.012C325.902 179.66 326.805 179.984 327.875 179.984C328.953 179.984 329.859 179.66 330.594 179.012C331.328 178.355 331.695 177.648 331.695 176.891ZM356.691 175.18L354.465 182H351.77L350.34 170.199C349.973 170.152 349.695 170.027 349.508 169.824C349.32 169.613 349.227 169.348 349.227 169.027C349.227 168.652 349.348 168.352 349.59 168.125C349.84 167.898 350.254 167.785 350.832 167.785L354.031 167.797C354.609 167.797 355.02 167.906 355.262 168.125C355.512 168.344 355.637 168.633 355.637 168.992C355.637 169.352 355.512 169.645 355.262 169.871C355.02 170.09 354.609 170.199 354.031 170.199H352.777L353.574 176.914L355.461 171.324H357.957L359.832 176.914L360.629 170.199H359.375C358.797 170.199 358.383 170.09 358.133 169.871C357.891 169.645 357.77 169.352 357.77 168.992C357.77 168.633 357.891 168.344 358.133 168.125C358.383 167.898 358.797 167.785 359.375 167.785L362.562 167.797C363.141 167.797 363.551 167.906 363.793 168.125C364.043 168.344 364.168 168.633 364.168 168.992C364.168 169.297 364.07 169.559 363.875 169.777C363.68 169.996 363.398 170.137 363.031 170.199L361.648 182H359L356.691 175.18ZM377.34 176.879C377.34 177.801 377.082 178.695 376.566 179.562C376.059 180.422 375.297 181.109 374.281 181.625C373.273 182.133 372.219 182.387 371.117 182.387C370.023 182.387 368.977 182.137 367.977 181.637C366.977 181.129 366.215 180.441 365.691 179.574C365.168 178.707 364.906 177.801 364.906 176.855C364.906 175.895 365.172 174.953 365.703 174.031C366.234 173.102 366.996 172.371 367.988 171.84C368.988 171.309 370.031 171.043 371.117 171.043C372.211 171.043 373.262 171.316 374.27 171.863C375.285 172.402 376.051 173.133 376.566 174.055C377.082 174.969 377.34 175.91 377.34 176.879ZM374.938 176.891C374.938 176.117 374.66 175.406 374.105 174.758C373.348 173.883 372.352 173.445 371.117 173.445C370.031 173.445 369.125 173.793 368.398 174.488C367.672 175.184 367.309 175.988 367.309 176.902C367.309 177.652 367.676 178.355 368.41 179.012C369.145 179.66 370.047 179.984 371.117 179.984C372.195 179.984 373.102 179.66 373.836 179.012C374.57 178.355 374.938 177.648 374.938 176.891ZM385.016 171.359V172.859C386.023 172.133 386.816 171.648 387.395 171.406C387.98 171.164 388.527 171.043 389.035 171.043C389.816 171.043 390.574 171.332 391.309 171.91C391.809 172.301 392.059 172.699 392.059 173.105C392.059 173.449 391.938 173.742 391.695 173.984C391.461 174.219 391.176 174.336 390.84 174.336C390.543 174.336 390.23 174.188 389.902 173.891C389.574 173.594 389.281 173.445 389.023 173.445C388.688 173.445 388.184 173.656 387.512 174.078C386.848 174.5 386.016 175.133 385.016 175.977V179.598H388.438C389.016 179.598 389.426 179.711 389.668 179.938C389.918 180.156 390.043 180.445 390.043 180.805C390.043 181.156 389.918 181.445 389.668 181.672C389.426 181.891 389.016 182 388.438 182H381.184C380.605 182 380.191 181.891 379.941 181.672C379.699 181.445 379.578 181.152 379.578 180.793C379.578 180.441 379.699 180.156 379.941 179.938C380.191 179.711 380.605 179.598 381.184 179.598H382.613V173.762H381.746C381.168 173.762 380.754 173.652 380.504 173.434C380.262 173.207 380.141 172.914 380.141 172.555C380.141 172.203 380.262 171.918 380.504 171.699C380.754 171.473 381.168 171.359 381.746 171.359H385.016ZM401.129 166.801V179.598H404.012C404.59 179.598 405 179.711 405.242 179.938C405.492 180.156 405.617 180.445 405.617 180.805C405.617 181.156 405.492 181.445 405.242 181.672C405 181.891 404.59 182 404.012 182H395.844C395.266 182 394.852 181.891 394.602 181.672C394.359 181.445 394.238 181.152 394.238 180.793C394.238 180.441 394.359 180.156 394.602 179.938C394.852 179.711 395.266 179.598 395.844 179.598H398.727V169.203H396.793C396.223 169.203 395.812 169.094 395.562 168.875C395.312 168.648 395.188 168.355 395.188 167.996C395.188 167.645 395.309 167.359 395.551 167.141C395.801 166.914 396.215 166.801 396.793 166.801H401.129ZM419.855 166.801V179.598H420.266C420.836 179.598 421.246 179.711 421.496 179.938C421.746 180.156 421.871 180.445 421.871 180.805C421.871 181.156 421.746 181.445 421.496 181.672C421.254 181.891 420.844 182 420.266 182H417.453V181.414C416.906 181.734 416.332 181.977 415.73 182.141C415.137 182.305 414.52 182.387 413.879 182.387C412.074 182.387 410.621 181.867 409.52 180.828C408.418 179.781 407.867 178.48 407.867 176.926C407.867 175.301 408.445 173.914 409.602 172.766C410.758 171.617 412.168 171.043 413.832 171.043C414.457 171.043 415.07 171.141 415.672 171.336C416.273 171.523 416.867 171.809 417.453 172.191V169.203H417.043C416.465 169.203 416.051 169.094 415.801 168.875C415.559 168.648 415.438 168.359 415.438 168.008C415.438 167.648 415.559 167.359 415.801 167.141C416.051 166.914 416.465 166.801 417.043 166.801H419.855ZM417.453 176.996C417.453 176.004 417.105 175.164 416.41 174.477C415.715 173.789 414.863 173.445 413.855 173.445C412.855 173.445 412.008 173.789 411.312 174.477C410.617 175.164 410.27 175.992 410.27 176.961C410.27 177.844 410.582 178.57 411.207 179.141C411.832 179.703 412.715 179.984 413.855 179.984C414.988 179.984 415.871 179.703 416.504 179.141C417.137 178.57 417.453 177.855 417.453 176.996ZM430.543 169.191L429.875 176.434C429.844 176.809 429.719 177.102 429.5 177.312C429.281 177.516 429.008 177.617 428.68 177.617C428.352 177.617 428.078 177.516 427.859 177.312C427.641 177.102 427.516 176.809 427.484 176.434L426.805 169.191C426.773 168.824 426.758 168.582 426.758 168.465C426.758 167.855 426.941 167.367 427.309 167C427.676 166.625 428.133 166.438 428.68 166.438C429.219 166.438 429.672 166.625 430.039 167C430.414 167.375 430.602 167.848 430.602 168.418C430.602 168.535 430.582 168.793 430.543 169.191ZM430.156 181.121C430.156 181.465 430.027 181.758 429.77 182C429.512 182.234 429.156 182.352 428.703 182.352C428.25 182.352 427.895 182.234 427.637 182C427.379 181.758 427.25 181.465 427.25 181.121C427.25 180.785 427.375 180.5 427.625 180.266C427.883 180.023 428.242 179.902 428.703 179.902C429.164 179.902 429.52 180.02 429.77 180.254C430.027 180.488 430.156 180.777 430.156 181.121Z" fill="#14213D"/>
<rect x="0.5" y="0.5" width="699" height="349" rx="9.5" stroke="#E6E6E6"/>
</svg>
