<svg width="700" height="350" viewBox="0 0 700 350" fill="none" xmlns="http://www.w3.org/2000/svg">
<rect x="0.5" y="0.5" width="699" height="349" rx="9.5" fill="white"/>
<rect x="230" y="130" width="240" height="90" rx="5" fill="#F94144" stroke="#E03B3B" stroke-width="10"/>
<path d="M300.724 167.96V182H297.304V176.22H291.984V182H288.564V167.96H291.984V173.46H297.304V167.96H300.724ZM313.713 176.24C313.713 176.56 313.693 176.893 313.653 177.24H305.913C305.966 177.933 306.186 178.467 306.573 178.84C306.973 179.2 307.46 179.38 308.033 179.38C308.886 179.38 309.48 179.02 309.813 178.3H313.453C313.266 179.033 312.926 179.693 312.433 180.28C311.953 180.867 311.346 181.327 310.613 181.66C309.88 181.993 309.06 182.16 308.153 182.16C307.06 182.16 306.086 181.927 305.233 181.46C304.38 180.993 303.713 180.327 303.233 179.46C302.753 178.593 302.513 177.58 302.513 176.42C302.513 175.26 302.746 174.247 303.213 173.38C303.693 172.513 304.36 171.847 305.213 171.38C306.066 170.913 307.046 170.68 308.153 170.68C309.233 170.68 310.193 170.907 311.033 171.36C311.873 171.813 312.526 172.46 312.993 173.3C313.473 174.14 313.713 175.12 313.713 176.24ZM310.213 175.34C310.213 174.753 310.013 174.287 309.613 173.94C309.213 173.593 308.713 173.42 308.113 173.42C307.54 173.42 307.053 173.587 306.653 173.92C306.266 174.253 306.026 174.727 305.933 175.34H310.213ZM318.937 167.2V182H315.517V167.2H318.937ZM324.836 167.2V182H321.416V167.2H324.836ZM332.394 182.16C331.301 182.16 330.314 181.927 329.434 181.46C328.568 180.993 327.881 180.327 327.374 179.46C326.881 178.593 326.634 177.58 326.634 176.42C326.634 175.273 326.888 174.267 327.394 173.4C327.901 172.52 328.594 171.847 329.474 171.38C330.354 170.913 331.341 170.68 332.434 170.68C333.528 170.68 334.514 170.913 335.394 171.38C336.274 171.847 336.968 172.52 337.474 173.4C337.981 174.267 338.234 175.273 338.234 176.42C338.234 177.567 337.974 178.58 337.454 179.46C336.948 180.327 336.248 180.993 335.354 181.46C334.474 181.927 333.488 182.16 332.394 182.16ZM332.394 179.2C333.048 179.2 333.601 178.96 334.054 178.48C334.521 178 334.754 177.313 334.754 176.42C334.754 175.527 334.528 174.84 334.074 174.36C333.634 173.88 333.088 173.64 332.434 173.64C331.768 173.64 331.214 173.88 330.774 174.36C330.334 174.827 330.114 175.513 330.114 176.42C330.114 177.313 330.328 178 330.754 178.48C331.194 178.96 331.741 179.2 332.394 179.2ZM363.607 167.96L359.947 182H355.807L353.567 172.76L351.247 182H347.107L343.547 167.96H347.207L349.227 178.18L351.727 167.96H355.487L357.887 178.18L359.927 167.96H363.607ZM370.402 182.16C369.309 182.16 368.322 181.927 367.442 181.46C366.575 180.993 365.889 180.327 365.382 179.46C364.889 178.593 364.642 177.58 364.642 176.42C364.642 175.273 364.895 174.267 365.402 173.4C365.909 172.52 366.602 171.847 367.482 171.38C368.362 170.913 369.349 170.68 370.442 170.68C371.535 170.68 372.522 170.913 373.402 171.38C374.282 171.847 374.975 172.52 375.482 173.4C375.989 174.267 376.242 175.273 376.242 176.42C376.242 177.567 375.982 178.58 375.462 179.46C374.955 180.327 374.255 180.993 373.362 181.46C372.482 181.927 371.495 182.16 370.402 182.16ZM370.402 179.2C371.055 179.2 371.609 178.96 372.062 178.48C372.529 178 372.762 177.313 372.762 176.42C372.762 175.527 372.535 174.84 372.082 174.36C371.642 173.88 371.095 173.64 370.442 173.64C369.775 173.64 369.222 173.88 368.782 174.36C368.342 174.827 368.122 175.513 368.122 176.42C368.122 177.313 368.335 178 368.762 178.48C369.202 178.96 369.749 179.2 370.402 179.2ZM381.476 172.7C381.876 172.087 382.376 171.607 382.976 171.26C383.576 170.9 384.243 170.72 384.976 170.72V174.34H384.036C383.183 174.34 382.543 174.527 382.116 174.9C381.69 175.26 381.476 175.9 381.476 176.82V182H378.056V170.84H381.476V172.7ZM390.031 167.2V182H386.611V167.2H390.031ZM391.83 176.4C391.83 175.253 392.043 174.247 392.47 173.38C392.91 172.513 393.503 171.847 394.25 171.38C394.996 170.913 395.83 170.68 396.75 170.68C397.483 170.68 398.15 170.833 398.75 171.14C399.363 171.447 399.843 171.86 400.19 172.38V167.2H403.61V182H400.19V180.4C399.87 180.933 399.41 181.36 398.81 181.68C398.223 182 397.536 182.16 396.75 182.16C395.83 182.16 394.996 181.927 394.25 181.46C393.503 180.98 392.91 180.307 392.47 179.44C392.043 178.56 391.83 177.547 391.83 176.4ZM400.19 176.42C400.19 175.567 399.95 174.893 399.47 174.4C399.003 173.907 398.43 173.66 397.75 173.66C397.07 173.66 396.49 173.907 396.01 174.4C395.543 174.88 395.31 175.547 395.31 176.4C395.31 177.253 395.543 177.933 396.01 178.44C396.49 178.933 397.07 179.18 397.75 179.18C398.43 179.18 399.003 178.933 399.47 178.44C399.95 177.947 400.19 177.273 400.19 176.42ZM410.584 167.46L410.184 177.04H407.284L406.884 167.46H410.584ZM408.784 182.16C408.184 182.16 407.69 181.987 407.304 181.64C406.93 181.28 406.744 180.84 406.744 180.32C406.744 179.787 406.93 179.34 407.304 178.98C407.69 178.62 408.184 178.44 408.784 178.44C409.37 178.44 409.85 178.62 410.224 178.98C410.61 179.34 410.804 179.787 410.804 180.32C410.804 180.84 410.61 181.28 410.224 181.64C409.85 181.987 409.37 182.16 408.784 182.16Z" fill="white"/>
<rect x="0.5" y="0.5" width="699" height="349" rx="9.5" stroke="#E6E6E6"/>
</svg>
