<svg width="700" height="350" viewBox="0 0 700 350" fill="none" xmlns="http://www.w3.org/2000/svg">
<rect x="0.5" y="0.5" width="699" height="349" rx="9.5" fill="white"/>
<rect x="230" y="130" width="240" height="90" rx="5" fill="#F94144" stroke="#E03B3B" stroke-width="10"/>
<path d="M285.193 176.098H280.916V178.998H281.229C281.71 178.998 282.052 179.092 282.254 179.281C282.462 179.464 282.566 179.704 282.566 180.004C282.566 180.297 282.462 180.538 282.254 180.727C282.052 180.909 281.71 181 281.229 181H278.777C278.296 181 277.951 180.909 277.742 180.727C277.54 180.538 277.439 180.294 277.439 179.994C277.439 179.63 277.599 179.346 277.918 179.145C278.074 179.04 278.406 178.992 278.914 178.998V171.166C278.562 171.133 278.296 171.026 278.113 170.844C277.938 170.661 277.85 170.434 277.85 170.16C277.85 169.861 277.951 169.62 278.152 169.438C278.361 169.249 278.706 169.154 279.188 169.154L281.229 169.164C281.71 169.164 282.052 169.255 282.254 169.438C282.462 169.62 282.566 169.861 282.566 170.16C282.566 170.46 282.462 170.704 282.254 170.893C282.052 171.075 281.71 171.166 281.229 171.166H280.916V174.096H285.193V171.166H284.881C284.399 171.166 284.054 171.075 283.846 170.893C283.644 170.704 283.543 170.46 283.543 170.16C283.543 169.861 283.644 169.62 283.846 169.438C284.054 169.249 284.399 169.154 284.881 169.154L286.922 169.164C287.404 169.164 287.745 169.255 287.947 169.438C288.156 169.62 288.26 169.861 288.26 170.16C288.26 170.434 288.169 170.661 287.986 170.844C287.811 171.026 287.547 171.133 287.195 171.166V178.998C287.71 178.998 288.042 179.047 288.191 179.145C288.51 179.346 288.67 179.633 288.67 180.004C288.67 180.297 288.566 180.538 288.357 180.727C288.156 180.909 287.814 181 287.332 181H284.881C284.399 181 284.054 180.909 283.846 180.727C283.644 180.538 283.543 180.294 283.543 179.994C283.543 179.701 283.647 179.464 283.855 179.281C284.064 179.092 284.406 178.998 284.881 178.998H285.193V176.098ZM300.037 177.582H291.824C292.033 178.103 292.4 178.523 292.928 178.842C293.462 179.161 294.181 179.32 295.086 179.32C295.828 179.32 296.814 179.161 298.045 178.842C298.553 178.712 298.904 178.646 299.1 178.646C299.367 178.646 299.591 178.741 299.773 178.93C299.956 179.118 300.047 179.356 300.047 179.643C300.047 179.903 299.949 180.124 299.754 180.307C299.493 180.548 298.859 180.779 297.85 181C296.84 181.215 295.87 181.322 294.939 181.322C293.338 181.322 292.055 180.87 291.092 179.965C290.135 179.06 289.656 177.947 289.656 176.625C289.656 175.219 290.174 174.076 291.209 173.197C292.251 172.312 293.449 171.869 294.803 171.869C295.617 171.869 296.362 172.012 297.039 172.299C297.723 172.585 298.23 172.895 298.562 173.227C299.031 173.708 299.419 174.304 299.725 175.014C299.933 175.508 300.037 176.081 300.037 176.732V177.582ZM297.82 175.58C297.514 175.007 297.114 174.581 296.619 174.301C296.124 174.014 295.535 173.871 294.852 173.871C294.174 173.871 293.589 174.014 293.094 174.301C292.599 174.581 292.195 175.007 291.883 175.58H297.82ZM308.025 168.334V178.998H310.428C310.91 178.998 311.251 179.092 311.453 179.281C311.661 179.464 311.766 179.704 311.766 180.004C311.766 180.297 311.661 180.538 311.453 180.727C311.251 180.909 310.91 181 310.428 181H303.621C303.139 181 302.794 180.909 302.586 180.727C302.384 180.538 302.283 180.294 302.283 179.994C302.283 179.701 302.384 179.464 302.586 179.281C302.794 179.092 303.139 178.998 303.621 178.998H306.023V170.336H304.412C303.937 170.336 303.595 170.245 303.387 170.062C303.178 169.874 303.074 169.63 303.074 169.33C303.074 169.037 303.175 168.799 303.377 168.617C303.585 168.428 303.93 168.334 304.412 168.334H308.025ZM320.037 168.334V178.998H322.439C322.921 178.998 323.263 179.092 323.465 179.281C323.673 179.464 323.777 179.704 323.777 180.004C323.777 180.297 323.673 180.538 323.465 180.727C323.263 180.909 322.921 181 322.439 181H315.633C315.151 181 314.806 180.909 314.598 180.727C314.396 180.538 314.295 180.294 314.295 179.994C314.295 179.701 314.396 179.464 314.598 179.281C314.806 179.092 315.151 178.998 315.633 178.998H318.035V170.336H316.424C315.949 170.336 315.607 170.245 315.398 170.062C315.19 169.874 315.086 169.63 315.086 169.33C315.086 169.037 315.187 168.799 315.389 168.617C315.597 168.428 315.942 168.334 316.424 168.334H320.037ZM336.248 176.732C336.248 177.501 336.033 178.246 335.604 178.969C335.18 179.685 334.546 180.258 333.699 180.688C332.859 181.111 331.98 181.322 331.062 181.322C330.151 181.322 329.279 181.114 328.445 180.697C327.612 180.274 326.977 179.701 326.541 178.979C326.105 178.256 325.887 177.501 325.887 176.713C325.887 175.912 326.108 175.128 326.551 174.359C326.993 173.585 327.628 172.976 328.455 172.533C329.288 172.09 330.158 171.869 331.062 171.869C331.974 171.869 332.85 172.097 333.689 172.553C334.536 173.002 335.174 173.611 335.604 174.379C336.033 175.141 336.248 175.925 336.248 176.732ZM334.246 176.742C334.246 176.098 334.015 175.505 333.553 174.965C332.921 174.236 332.091 173.871 331.062 173.871C330.158 173.871 329.402 174.161 328.797 174.74C328.191 175.32 327.889 175.99 327.889 176.752C327.889 177.377 328.195 177.963 328.807 178.51C329.419 179.05 330.171 179.32 331.062 179.32C331.961 179.32 332.716 179.05 333.328 178.51C333.94 177.963 334.246 177.374 334.246 176.742ZM355.076 175.316L353.221 181H350.975L349.783 171.166C349.477 171.127 349.246 171.023 349.09 170.854C348.934 170.678 348.855 170.456 348.855 170.189C348.855 169.877 348.956 169.626 349.158 169.438C349.367 169.249 349.712 169.154 350.193 169.154L352.859 169.164C353.341 169.164 353.683 169.255 353.885 169.438C354.093 169.62 354.197 169.861 354.197 170.16C354.197 170.46 354.093 170.704 353.885 170.893C353.683 171.075 353.341 171.166 352.859 171.166H351.814L352.479 176.762L354.051 172.104H356.131L357.693 176.762L358.357 171.166H357.312C356.831 171.166 356.486 171.075 356.277 170.893C356.076 170.704 355.975 170.46 355.975 170.16C355.975 169.861 356.076 169.62 356.277 169.438C356.486 169.249 356.831 169.154 357.312 169.154L359.969 169.164C360.451 169.164 360.792 169.255 360.994 169.438C361.202 169.62 361.307 169.861 361.307 170.16C361.307 170.414 361.225 170.632 361.062 170.814C360.9 170.997 360.665 171.114 360.359 171.166L359.207 181H357L355.076 175.316ZM372.283 176.732C372.283 177.501 372.068 178.246 371.639 178.969C371.215 179.685 370.581 180.258 369.734 180.688C368.895 181.111 368.016 181.322 367.098 181.322C366.186 181.322 365.314 181.114 364.48 180.697C363.647 180.274 363.012 179.701 362.576 178.979C362.14 178.256 361.922 177.501 361.922 176.713C361.922 175.912 362.143 175.128 362.586 174.359C363.029 173.585 363.663 172.976 364.49 172.533C365.324 172.09 366.193 171.869 367.098 171.869C368.009 171.869 368.885 172.097 369.725 172.553C370.571 173.002 371.209 173.611 371.639 174.379C372.068 175.141 372.283 175.925 372.283 176.732ZM370.281 176.742C370.281 176.098 370.05 175.505 369.588 174.965C368.956 174.236 368.126 173.871 367.098 173.871C366.193 173.871 365.438 174.161 364.832 174.74C364.227 175.32 363.924 175.99 363.924 176.752C363.924 177.377 364.23 177.963 364.842 178.51C365.454 179.05 366.206 179.32 367.098 179.32C367.996 179.32 368.751 179.05 369.363 178.51C369.975 177.963 370.281 177.374 370.281 176.742ZM378.68 172.133V173.383C379.52 172.777 380.18 172.374 380.662 172.172C381.15 171.97 381.606 171.869 382.029 171.869C382.68 171.869 383.312 172.11 383.924 172.592C384.34 172.917 384.549 173.249 384.549 173.588C384.549 173.874 384.448 174.118 384.246 174.32C384.051 174.516 383.813 174.613 383.533 174.613C383.286 174.613 383.025 174.49 382.752 174.242C382.479 173.995 382.234 173.871 382.02 173.871C381.74 173.871 381.32 174.047 380.76 174.398C380.206 174.75 379.513 175.277 378.68 175.98V178.998H381.531C382.013 178.998 382.355 179.092 382.557 179.281C382.765 179.464 382.869 179.704 382.869 180.004C382.869 180.297 382.765 180.538 382.557 180.727C382.355 180.909 382.013 181 381.531 181H375.486C375.005 181 374.66 180.909 374.451 180.727C374.249 180.538 374.148 180.294 374.148 179.994C374.148 179.701 374.249 179.464 374.451 179.281C374.66 179.092 375.005 178.998 375.486 178.998H376.678V174.135H375.955C375.473 174.135 375.128 174.044 374.92 173.861C374.718 173.673 374.617 173.428 374.617 173.129C374.617 172.836 374.718 172.598 374.92 172.416C375.128 172.227 375.473 172.133 375.955 172.133H378.68ZM392.107 168.334V178.998H394.51C394.992 178.998 395.333 179.092 395.535 179.281C395.743 179.464 395.848 179.704 395.848 180.004C395.848 180.297 395.743 180.538 395.535 180.727C395.333 180.909 394.992 181 394.51 181H387.703C387.221 181 386.876 180.909 386.668 180.727C386.466 180.538 386.365 180.294 386.365 179.994C386.365 179.701 386.466 179.464 386.668 179.281C386.876 179.092 387.221 178.998 387.703 178.998H390.105V170.336H388.494C388.019 170.336 387.677 170.245 387.469 170.062C387.26 169.874 387.156 169.63 387.156 169.33C387.156 169.037 387.257 168.799 387.459 168.617C387.667 168.428 388.012 168.334 388.494 168.334H392.107ZM407.713 168.334V178.998H408.055C408.53 178.998 408.872 179.092 409.08 179.281C409.288 179.464 409.393 179.704 409.393 180.004C409.393 180.297 409.288 180.538 409.08 180.727C408.878 180.909 408.536 181 408.055 181H405.711V180.512C405.255 180.779 404.777 180.98 404.275 181.117C403.781 181.254 403.266 181.322 402.732 181.322C401.229 181.322 400.018 180.889 399.1 180.023C398.182 179.151 397.723 178.067 397.723 176.771C397.723 175.417 398.204 174.262 399.168 173.305C400.132 172.348 401.307 171.869 402.693 171.869C403.214 171.869 403.725 171.951 404.227 172.113C404.728 172.27 405.223 172.507 405.711 172.826V170.336H405.369C404.887 170.336 404.542 170.245 404.334 170.062C404.132 169.874 404.031 169.633 404.031 169.34C404.031 169.04 404.132 168.799 404.334 168.617C404.542 168.428 404.887 168.334 405.369 168.334H407.713ZM405.711 176.83C405.711 176.003 405.421 175.303 404.842 174.73C404.262 174.158 403.553 173.871 402.713 173.871C401.88 173.871 401.173 174.158 400.594 174.73C400.014 175.303 399.725 175.993 399.725 176.801C399.725 177.536 399.985 178.142 400.506 178.617C401.027 179.086 401.762 179.32 402.713 179.32C403.657 179.32 404.393 179.086 404.92 178.617C405.447 178.142 405.711 177.546 405.711 176.83ZM416.619 170.326L416.062 176.361C416.036 176.674 415.932 176.918 415.75 177.094C415.568 177.263 415.34 177.348 415.066 177.348C414.793 177.348 414.565 177.263 414.383 177.094C414.201 176.918 414.096 176.674 414.07 176.361L413.504 170.326C413.478 170.02 413.465 169.818 413.465 169.721C413.465 169.213 413.618 168.806 413.924 168.5C414.23 168.188 414.611 168.031 415.066 168.031C415.516 168.031 415.893 168.188 416.199 168.5C416.512 168.812 416.668 169.206 416.668 169.682C416.668 169.779 416.652 169.994 416.619 170.326ZM416.297 180.268C416.297 180.554 416.189 180.798 415.975 181C415.76 181.195 415.464 181.293 415.086 181.293C414.708 181.293 414.412 181.195 414.197 181C413.982 180.798 413.875 180.554 413.875 180.268C413.875 179.988 413.979 179.75 414.188 179.555C414.402 179.353 414.702 179.252 415.086 179.252C415.47 179.252 415.766 179.35 415.975 179.545C416.189 179.74 416.297 179.981 416.297 180.268Z" fill="white"/>
<rect x="0.5" y="0.5" width="699" height="349" rx="9.5" stroke="#E6E6E6"/>
</svg>
